<svg xmlns="http://www.w3.org/2000/svg" width="28.865" height="42.538" viewBox="0 0 28.499999 41.549193"><path d="M28 28.272c0 4-1 7.333-3 10-2 2-5.167 3-9.5 3-4.667 0-8.333-1.667-11-5s-4-8.5-4-15.5c0-4.667.667-8.333 2-11 1.333-3.333 3.167-5.667 5.5-7 2.333-1.667 5-2.5 8-2.5 3.333 0 6.333.333 9 1v9h-3l-1-6c-1.333-1.333-3-2-5-2s-3.667 1.333-5 4c-1.333 2.667-2 6.333-2 11 2-.667 4.333-1 7-1 4 0 7 1 9 3s3 5 3 9zm-13 10c1.333 0 2.333-.667 3-2 .667-1.333 1-3.667 1-7 0-2.667-.333-5-1-7-.667-1.333-1.833-2-3.5-2-1.333 0-3 .333-5 1 .043 4.08-.431 17.183 5.5 17z" fill="#53493f" stroke="#53493f"/></svg>