<?xml version="1.0" encoding="UTF-8" standalone="no"?>
<!-- Created with Inkscape (http://www.inkscape.org/) -->

<svg
   xmlns:dc="http://purl.org/dc/elements/1.1/"
   xmlns:cc="http://creativecommons.org/ns#"
   xmlns:rdf="http://www.w3.org/1999/02/22-rdf-syntax-ns#"
   xmlns:svg="http://www.w3.org/2000/svg"
   xmlns="http://www.w3.org/2000/svg"
   xmlns:sodipodi="http://sodipodi.sourceforge.net/DTD/sodipodi-0.dtd"
   xmlns:inkscape="http://www.inkscape.org/namespaces/inkscape"
   width="28.865383"
   height="42.53846"
   viewBox="0 0 28.499999 41.549193"
   id="svg4204"
   version="1.1"
   inkscape:version="0.91 r13725"
   sodipodi:docname="logo-6.svg">
  <metadata
     id="metadata4216">
    <rdf:RDF>
      <cc:Work
         rdf:about="">
        <dc:format>image/svg+xml</dc:format>
        <dc:type
           rdf:resource="http://purl.org/dc/dcmitype/StillImage" />
        <dc:title></dc:title>
      </cc:Work>
    </rdf:RDF>
  </metadata>
  <defs
     id="defs4214" />
  <sodipodi:namedview
     pagecolor="#ffffff"
     bordercolor="#666666"
     borderopacity="1"
     objecttolerance="10"
     gridtolerance="10"
     guidetolerance="10"
     inkscape:pageopacity="0"
     inkscape:pageshadow="2"
     inkscape:window-width="1920"
     inkscape:window-height="1030"
     id="namedview4212"
     showgrid="false"
     inkscape:zoom="12.960641"
     inkscape:cx="-4.3393362"
     inkscape:cy="19.535427"
     inkscape:window-x="0"
     inkscape:window-y="0"
     inkscape:window-maximized="1"
     inkscape:current-layer="svg4204"
     fit-margin-top="0"
     fit-margin-left="0"
     fit-margin-right="0"
     fit-margin-bottom="0" />
  <path
     inkscape:connector-curvature="0"
     id="path4210"
     d="m 28,28.272151 c 0,4 -1,7.333333 -3,10 -2,2 -5.166667,3 -9.5,3 -4.666667,0 -8.333333,-1.666667 -11,-5 -2.666667,-3.333333 -4,-8.5 -4,-15.5 0,-4.666667 0.666667,-8.333333 2,-11.0000001 C 3.833333,6.4388178 5.666667,4.1054844 8,2.7721511 c 2.333333,-1.6666667 5,-2.50000008 8,-2.50000008 3.333333,0 6.333333,0.3333333 9,1.00000008 l 0,8.9999999 -3,0 -1,-5.9999999 c -1.333333,-1.3333333 -3,-2 -5,-2 -2,0 -3.666667,1.3333333 -5,4 -1.333333,2.6666667 -2,6.3333329 -2,10.9999999 2,-0.666667 4.333333,-1 7,-1 4,0 7,1 9,3 2,2 3,5 3,9 z m -13,10 c 1.333333,0 2.333333,-0.666667 3,-2 0.666667,-1.333333 1,-3.666667 1,-7 0,-2.666667 -0.333333,-5 -1,-7 -0.666667,-1.333333 -1.833333,-2 -3.5,-2 -1.333333,0 -3,0.333333 -5,1 l 0,0 c 0.04313,4.080571 -0.43145,17.18302 5.5,17 z"
     style="fill:#53493f;fill-opacity:1;stroke:#53493f;stroke-width:1px;stroke-opacity:1"
     sodipodi:nodetypes="scsssccsccccsscssscsscsccc" />
</svg>
