<?xml version="1.0" encoding="UTF-8" standalone="no"?>
<!-- Created with Inkscape (http://www.inkscape.org/) -->

<svg
   xmlns:dc="http://purl.org/dc/elements/1.1/"
   xmlns:cc="http://creativecommons.org/ns#"
   xmlns:rdf="http://www.w3.org/1999/02/22-rdf-syntax-ns#"
   xmlns:svg="http://www.w3.org/2000/svg"
   xmlns="http://www.w3.org/2000/svg"
   xmlns:sodipodi="http://sodipodi.sourceforge.net/DTD/sodipodi-0.dtd"
   xmlns:inkscape="http://www.inkscape.org/namespaces/inkscape"
   width="48.108974"
   height="42.53846"
   viewBox="0 0 47.5 41.549193"
   id="svg4204"
   version="1.1"
   inkscape:version="0.91 r13725"
   sodipodi:docname="logo-k.svg">
  <metadata
     id="metadata4216">
    <rdf:RDF>
      <cc:Work
         rdf:about="">
        <dc:format>image/svg+xml</dc:format>
        <dc:type
           rdf:resource="http://purl.org/dc/dcmitype/StillImage" />
        <dc:title></dc:title>
      </cc:Work>
    </rdf:RDF>
  </metadata>
  <defs
     id="defs4214" />
  <sodipodi:namedview
     pagecolor="#ffffff"
     bordercolor="#666666"
     borderopacity="1"
     objecttolerance="10"
     gridtolerance="10"
     guidetolerance="10"
     inkscape:pageopacity="0"
     inkscape:pageshadow="2"
     inkscape:window-width="1920"
     inkscape:window-height="1030"
     id="namedview4212"
     showgrid="false"
     inkscape:zoom="12.960641"
     inkscape:cx="45.288867"
     inkscape:cy="19.641692"
     inkscape:window-x="0"
     inkscape:window-y="0"
     inkscape:window-maximized="1"
     inkscape:current-layer="svg4204"
     fit-margin-top="0"
     fit-margin-left="0"
     fit-margin-right="0"
     fit-margin-bottom="0" />
  <path
     inkscape:connector-curvature="0"
     id="path4208"
     d="m 43.5,0.27215102 0,1.99999998 -5,1 -13.5,12 18,23 4,1 0,2 -13,0 -15,-20 -3.5,3 0,14 6,1 0,2 -21,0 0,-2 5,-1 0,-35 -5,-1 0,-1.99999998 20,0 0,1.99999998 -5,1 0,17 19,-17 -4,-1 0,-1.99999998 c 1.167443,0 16.444626,0 13,0 z"
     style="stroke:#000000;stroke-width:1px;fill:#000000;stroke-opacity:1"
     sodipodi:nodetypes="ccccccccccccccccccccccccccc" />
</svg>
